<svg width="240" height="240" viewBox="0 0 240 240" fill="none" xmlns="http://www.w3.org/2000/svg">
<circle cx="120" cy="120" r="120" fill="url(#paint0_linear_5807_13525)"/>
<g clip-path="url(#clip0_5807_13525)">
<path d="M120 168.465C125.523 168.465 130 163.988 130 158.465C130 152.942 125.523 148.465 120 148.465C114.477 148.465 110 152.942 110 158.465C110 163.988 114.477 168.465 120 168.465Z" fill="white"/>
<path d="M157.267 119.034L157.633 118.468C157.995 117.907 158.242 117.279 158.359 116.622C158.476 115.965 158.461 115.291 158.316 114.64C158.17 113.988 157.896 113.372 157.51 112.828C157.124 112.283 156.633 111.821 156.067 111.468C145.229 104.772 132.739 101.229 120 101.234C118.133 101.234 116.3 101.234 114.5 101.468L125.2 112.168C134.183 112.96 142.857 115.836 150.533 120.568C151.635 121.235 152.954 121.449 154.21 121.163C155.466 120.877 156.562 120.113 157.267 119.034Z" fill="white"/>
<path d="M169.2 91.2656C158.091 84.3369 145.644 79.832 132.674 78.0455C119.704 76.2591 106.502 77.2315 93.9336 80.899L102.7 89.6656C123.645 85.1693 145.517 89.02 163.667 100.399C164.763 101.046 166.066 101.248 167.306 100.963C168.547 100.678 169.631 99.9269 170.334 98.8656L170.7 98.299C171.07 97.7408 171.326 97.1144 171.451 96.4564C171.576 95.7984 171.568 95.1221 171.428 94.4671C171.289 93.8121 171.02 93.1915 170.637 92.6418C170.254 92.092 169.766 91.6242 169.2 91.2656Z" fill="white"/>
<path d="M70.0012 75.8328L80.3345 86.1661C76.9859 87.7096 73.7353 89.4573 70.6012 91.3995C70.0274 91.7499 69.5296 92.2118 69.1373 92.7578C68.7449 93.3038 68.4659 93.9229 68.3168 94.5785C68.1677 95.2341 68.1514 95.9129 68.2689 96.5749C68.3865 97.2369 68.6354 97.8686 69.0012 98.4328L69.3678 98.9995C70.0708 100.061 71.1545 100.812 72.3951 101.097C73.6357 101.382 74.9385 101.18 76.0345 100.533C79.9282 98.0837 84.0203 95.9652 88.2678 94.1995L98.7345 104.666C93.4375 106.368 88.367 108.707 83.6345 111.633C83.0707 111.989 82.5832 112.453 82.2004 112.999C81.8175 113.545 81.5469 114.161 81.4043 114.812C81.2616 115.463 81.2497 116.137 81.3694 116.792C81.489 117.448 81.7378 118.074 82.1012 118.633L82.4678 119.199C83.1708 120.261 84.2545 121.011 85.4951 121.297C86.7357 121.582 88.0385 121.38 89.1345 120.733C94.7903 117.237 101.002 114.735 107.501 113.333L119.501 125.333C111.517 125.416 103.702 127.637 96.8678 131.766C96.3052 132.119 95.8184 132.58 95.4359 133.123C95.0534 133.666 94.7829 134.279 94.6402 134.928C94.4975 135.576 94.4853 136.247 94.6045 136.9C94.7238 137.553 94.9719 138.176 95.3345 138.733L95.6678 139.266C96.4013 140.35 97.5259 141.108 98.8059 141.382C100.086 141.655 101.422 141.423 102.534 140.733C107.021 138.068 112.06 136.471 117.262 136.067C122.465 135.662 127.69 136.46 132.534 138.399L156.668 162.499L161.368 157.799L74.7012 71.1328L70.0012 75.8328Z" fill="white"/>
</g>
<defs>
<linearGradient id="paint0_linear_5807_13525" x1="120" y1="0" x2="120" y2="240" gradientUnits="userSpaceOnUse">
<stop stop-color="#E0115F"/>
<stop offset="0.918269" stop-color="#6A0028"/>
</linearGradient>
<clipPath id="clip0_5807_13525">
<rect width="120" height="120" fill="white" transform="translate(60 60)"/>
</clipPath>
</defs>
</svg>
