<svg width="71" height="71" viewBox="0 0 71 71" fill="none" xmlns="http://www.w3.org/2000/svg">
<path d="M63.1374 12.6525C63.1374 11.3103 62.605 10.023 61.6579 9.07385C60.7105 8.12475 59.4259 7.59154 58.0865 7.59154H54.2979C53.2935 7.59154 52.3298 7.19162 51.6192 6.47977C50.909 5.76792 50.5097 4.80245 50.5097 3.79575C50.5097 2.78909 50.909 1.82358 51.6192 1.11177C52.3298 0.399927 53.2935 0 54.2979 0H58.0865C61.4355 0 64.6471 1.33302 67.0153 3.70586C69.3836 6.07866 70.7137 9.29689 70.7137 12.6525V16.4483C70.7137 17.455 70.3149 18.4205 69.6043 19.1323C68.8937 19.8441 67.9304 20.2441 66.9256 20.2441C65.9207 20.2441 64.9575 19.8441 64.2469 19.1323C63.5363 18.4205 63.1374 17.455 63.1374 16.4483V12.6525ZM7.57647 12.6525C7.57647 11.3103 8.10866 10.023 9.05588 9.07385C10.0031 8.12475 11.2879 7.59154 12.6275 7.59154H16.4157C17.4204 7.59154 18.384 7.19162 19.0944 6.47977C19.8048 5.76792 20.204 4.80245 20.204 3.79575C20.204 2.78909 19.8048 1.82358 19.0944 1.11177C18.384 0.399927 17.4204 0 16.4157 0H12.6275C9.27848 0 6.06663 1.33302 3.6985 3.70586C1.33041 6.07866 0 9.29689 0 12.6525V16.4483C0 17.455 0.399133 18.4205 1.10957 19.1323C1.82 19.8441 2.78355 20.2441 3.78826 20.2441C4.79296 20.2441 5.75651 19.8441 6.46695 19.1323C7.17738 18.4205 7.57647 17.455 7.57647 16.4483V12.6525ZM58.0865 63.2626C59.4259 63.2626 60.7105 62.7296 61.6579 61.7802C62.605 60.8313 63.1374 59.5441 63.1374 58.2017V54.4059C63.1374 53.3991 63.5363 52.434 64.2469 51.7219C64.9575 51.0099 65.9207 50.6102 66.9256 50.6102C67.9304 50.6102 68.8937 51.0099 69.6043 51.7219C70.3149 52.434 70.7137 53.3991 70.7137 54.4059V58.2017C70.7137 61.5573 69.3836 64.7757 67.0153 67.1482C64.6471 69.5212 61.4355 70.8545 58.0865 70.8545H54.2979C53.2935 70.8545 52.3298 70.4543 51.6192 69.7423C50.909 69.0307 50.5097 68.0651 50.5097 67.0583C50.5097 66.0519 50.909 65.0863 51.6192 64.3743C52.3298 63.6627 53.2935 63.2626 54.2979 63.2626H58.0865ZM7.57647 58.2017C7.57647 59.5441 8.10866 60.8313 9.05588 61.7802C10.0031 62.7296 11.2879 63.2626 12.6275 63.2626H16.4157C17.4204 63.2626 18.384 63.6627 19.0944 64.3743C19.8048 65.0863 20.204 66.0519 20.204 67.0583C20.204 68.0651 19.8048 69.0307 19.0944 69.7423C18.384 70.4543 17.4204 70.8545 16.4157 70.8545H12.6275C9.27848 70.8545 6.06663 69.5212 3.6985 67.1482C1.33041 64.7757 0 61.5573 0 58.2017V54.4059C0 53.3991 0.399133 52.434 1.10957 51.7219C1.82 51.0099 2.78355 50.6102 3.78826 50.6102C4.79296 50.6102 5.75651 51.0099 6.46695 51.7219C7.17738 52.434 7.57647 53.3991 7.57647 54.4059V58.2017ZM49.247 17.7136C50.2518 17.7136 51.2155 18.1135 51.9257 18.8253C52.6363 19.5371 53.0352 20.5026 53.0352 21.5093V49.345C53.0352 50.3514 52.6363 51.317 51.9257 52.029C51.2155 52.7406 50.2518 53.1407 49.247 53.1407C48.2426 53.1407 47.2789 52.7406 46.5683 52.029C45.8581 51.317 45.4588 50.3514 45.4588 49.345V21.5093C45.4588 20.5026 45.8581 19.5371 46.5683 18.8253C47.2789 18.1135 48.2426 17.7136 49.247 17.7136ZM25.255 21.5093C25.255 20.5026 24.8558 19.5371 24.1454 18.8253C23.4349 18.1135 22.4714 17.7136 21.4667 17.7136C20.462 17.7136 19.4984 18.1135 18.788 18.8253C18.0776 19.5371 17.6785 20.5026 17.6785 21.5093V36.6923C17.6785 37.6991 18.0776 38.6645 18.788 39.3762C19.4984 40.0883 20.462 40.4879 21.4667 40.4879C22.4714 40.4879 23.4349 40.0883 24.1454 39.3762C24.8558 38.6645 25.255 37.6991 25.255 36.6923V21.5093ZM35.3569 17.7136C36.3616 17.7136 37.3252 18.1135 38.0356 18.8253C38.7459 19.5371 39.1452 20.5026 39.1452 21.5093V49.345C39.1452 50.3514 38.7459 51.317 38.0356 52.029C37.3252 52.7406 36.3616 53.1407 35.3569 53.1407C34.3522 53.1407 33.3887 52.7406 32.6782 52.029C31.9678 51.317 31.5687 50.3514 31.5687 49.345V21.5093C31.5687 20.5026 31.9678 19.5371 32.6782 18.8253C33.3887 18.1135 34.3522 17.7136 35.3569 17.7136Z" fill="white"/>
</svg>
