<svg width="40" height="40" viewBox="0 0 40 40" fill="none" xmlns="http://www.w3.org/2000/svg">
<path d="M2.5 37.5L9.30556 30.6944M10.2778 16.1111C10.2778 17.8985 10.6298 19.6685 11.3139 21.3199C11.9979 22.9712 13.0005 24.4717 14.2644 25.7356C15.5283 26.9995 17.0288 28.0021 18.6801 28.6861C20.3315 29.3702 22.1015 29.7222 23.8889 29.7222C25.6763 29.7222 27.4463 29.3702 29.0976 28.6861C30.749 28.0021 32.2495 26.9995 33.5134 25.7356C34.7773 24.4717 35.7799 22.9712 36.4639 21.3199C37.1479 19.6685 37.5 17.8985 37.5 16.1111C37.5 12.5012 36.066 9.03918 33.5134 6.4866C30.9608 3.93402 27.4988 2.5 23.8889 2.5C20.279 2.5 16.817 3.93402 14.2644 6.4866C11.7118 9.03918 10.2778 12.5012 10.2778 16.1111Z" stroke="white" stroke-width="5" stroke-linecap="round"/>
</svg>
