<svg width="42" height="42" viewBox="0 0 42 42" fill="none" xmlns="http://www.w3.org/2000/svg">
<path fill-rule="evenodd" clip-rule="evenodd" d="M4.10359 3.92887C4.36481 3.70195 4.68743 3.55756 5.03069 3.51395C5.37395 3.47035 5.72243 3.52948 6.03209 3.68387L37.5321 19.4339C37.8233 19.579 38.0683 19.8025 38.2395 20.0791C38.4108 20.3558 38.5015 20.6747 38.5015 21.0001C38.5015 21.3255 38.4108 21.6444 38.2395 21.9211C38.0683 22.1978 37.8233 22.4212 37.5321 22.5664L6.03209 38.3164C5.72245 38.4713 5.37381 38.5309 5.03029 38.4876C4.68677 38.4444 4.36381 38.3002 4.10227 38.0733C3.84072 37.8464 3.65236 37.547 3.56101 37.2131C3.46966 36.8791 3.47944 36.5255 3.58909 36.1971L8.07259 22.7501H17.4998C17.964 22.7501 18.4091 22.5658 18.7373 22.2376C19.0655 21.9094 19.2498 21.4643 19.2498 21.0001C19.2498 20.536 19.0655 20.0909 18.7373 19.7627C18.4091 19.4345 17.964 19.2501 17.4998 19.2501H8.07259L3.58734 5.80312C3.47825 5.47484 3.4689 5.12159 3.56048 4.788C3.65205 4.45441 3.84219 4.15544 4.10359 3.92887Z" fill="white"/>
</svg>
