<svg width="48" height="48" viewBox="0 0 48 48" fill="none" xmlns="http://www.w3.org/2000/svg">
<path d="M19.92 18.2725L21.692 12.0745C22.356 9.7545 25.644 9.7545 26.308 12.0745L28.078 18.2725C28.1901 18.6646 28.4002 19.0216 28.6886 19.31C28.9769 19.5983 29.334 19.8084 29.726 19.9205L35.924 21.6905C38.244 22.3545 38.244 25.6425 35.924 26.3065L29.726 28.0765C29.334 28.1886 28.9769 28.3987 28.6886 28.687C28.4002 28.9754 28.1901 29.3324 28.078 29.7245L26.308 35.9225C25.644 38.2425 22.356 38.2425 21.692 35.9225L19.922 29.7245C19.81 29.3324 19.5999 28.9754 19.3115 28.687C19.0232 28.3987 18.6661 28.1886 18.274 28.0765L12.076 26.3065C9.75605 25.6425 9.75605 22.3545 12.076 21.6905L18.274 19.9205C18.6661 19.8084 19.0232 19.5983 19.3115 19.31C19.5999 19.0216 19.81 18.6646 19.922 18.2725M36.208 33.0125C36.786 31.3265 39.216 31.3245 39.792 33.0125L39.844 33.1865L40.436 35.5625L42.812 36.1565C44.732 36.6365 44.732 39.3605 42.812 39.8405L40.436 40.4345L39.844 42.8105C39.364 44.7285 36.638 44.7285 36.158 42.8105L35.564 40.4345L33.188 39.8405C31.268 39.3605 31.268 36.6345 33.188 36.1565L35.564 35.5625L36.158 33.1865L36.208 33.0125ZM38 37.5925C37.8849 37.7467 37.7482 37.8834 37.594 37.9985C37.7482 38.1136 37.8849 38.2503 38 38.4045C38.1151 38.2503 38.2519 38.1136 38.406 37.9985C38.2517 37.8828 38.115 37.7454 38 37.5905M8.20805 5.0105C8.80405 3.2685 11.378 3.3265 11.844 5.1845L12.436 7.5605L14.812 8.1545C16.732 8.6345 16.732 11.3585 14.812 11.8385L12.436 12.4325L11.844 14.8085C11.364 16.7265 8.63805 16.7265 8.15805 14.8085L7.56405 12.4325L5.18805 11.8385C3.26805 11.3585 3.26805 8.6325 5.18805 8.1545L7.56405 7.5605L8.15805 5.1845L8.20805 5.0105ZM10 9.5925C9.8848 9.74594 9.74806 9.88201 9.59405 9.9965C9.74834 10.1122 9.88509 10.2496 10 10.4045C10.115 10.2496 10.2517 10.1122 10.406 9.9965C10.2519 9.88139 10.1151 9.74665 10 9.5925Z" fill="#E0115F"/>
</svg>
