<svg width="53" height="53" viewBox="0 0 53 53" fill="none" xmlns="http://www.w3.org/2000/svg">
<path d="M42.5887 12.7762C42.5887 13.1527 42.7383 13.5138 43.0045 13.7801C43.2708 14.0463 43.6319 14.1959 44.0084 14.1959C44.3849 14.1959 44.746 14.0463 45.0122 13.7801C45.2785 13.5138 45.428 13.1527 45.428 12.7762V10.4102H47.7941C48.1706 10.4102 48.5317 10.2606 48.7979 9.99435C49.0642 9.72812 49.2137 9.36703 49.2137 8.99051C49.2137 8.614 49.0642 8.25291 48.7979 7.98668C48.5317 7.72044 48.1706 7.57087 47.7941 7.57087H45.428V5.2048C45.428 4.82829 45.2785 4.46719 45.0122 4.20096C44.746 3.93473 44.3849 3.78516 44.0084 3.78516C43.6319 3.78516 43.2708 3.93473 43.0045 4.20096C42.7383 4.46719 42.5887 4.82829 42.5887 5.2048V7.57087H40.2227C39.8462 7.57087 39.4851 7.72044 39.2188 7.98668C38.9526 8.25291 38.803 8.614 38.803 8.99051C38.803 9.36703 38.9526 9.72812 39.2188 9.99435C39.4851 10.2606 39.8462 10.4102 40.2227 10.4102H42.5887V12.7762ZM16.2894 6.85159C16.6168 5.27105 17.9967 3.78516 19.8782 3.78516C21.7597 3.78516 23.1377 5.27105 23.4652 6.85159C23.8002 8.4643 24.6426 10.8985 26.7455 13.0034C28.8485 15.1082 31.2846 15.9506 32.8973 16.2856C34.4778 16.6149 35.9637 17.9929 35.9637 19.8744C35.9637 21.7559 34.4778 23.1358 32.8973 23.4633C31.2846 23.7983 28.8523 24.6407 26.7455 26.7474C24.6426 28.8523 23.8002 31.2846 23.4671 32.8954C23.1377 34.4778 21.7597 35.9637 19.8763 35.9637C17.9948 35.9637 16.6168 34.4797 16.2875 32.8973C15.9524 31.2846 15.1101 28.8504 13.0053 26.7455C10.9004 24.6369 8.46619 23.7964 6.85537 23.4633C5.27673 23.1339 3.79273 21.7597 3.78894 19.8801C3.78516 17.9967 5.27294 16.6149 6.85537 16.2856C8.46809 15.9506 10.9004 15.1101 13.0072 13.0034C15.1139 10.8966 15.9543 8.4643 16.2894 6.85159ZM21.7673 42.1155V37.5159C20.8601 37.8503 19.8806 37.9391 18.928 37.7733V42.1155C18.928 43.9981 19.6759 45.8036 21.007 47.1347C22.3382 48.4659 24.1437 49.2137 26.0262 49.2137H42.1155C43.9981 49.2137 45.8036 48.4659 47.1347 47.1347C48.4659 45.8036 49.2137 43.9981 49.2137 42.1155V26.0262C49.2137 24.1437 48.4659 22.3382 47.1347 21.007C45.8036 19.6759 43.9981 18.928 42.1155 18.928H37.7752C37.9403 19.8808 37.8509 20.8602 37.5159 21.7673H42.1155C43.2451 21.7673 44.3283 22.216 45.127 23.0147C45.9257 23.8134 46.3745 24.8967 46.3745 26.0262V42.1155C46.3745 43.2451 45.9257 44.3283 45.127 45.127C44.3283 45.9257 43.2451 46.3745 42.1155 46.3745H26.0262C24.8967 46.3745 23.8134 45.9257 23.0147 45.127C22.216 44.3283 21.7673 43.2451 21.7673 42.1155ZM3.78516 44.0084C3.78516 43.6319 3.93473 43.2708 4.20096 43.0045C4.46719 42.7383 4.82829 42.5887 5.2048 42.5887H7.57087V40.2227C7.57087 39.8462 7.72044 39.4851 7.98668 39.2188C8.25291 38.9526 8.614 38.803 8.99051 38.803C9.36703 38.803 9.72812 38.9526 9.99435 39.2188C10.2606 39.4851 10.4102 39.8462 10.4102 40.2227V42.5887H12.7762C13.1527 42.5887 13.5138 42.7383 13.7801 43.0045C14.0463 43.2708 14.1959 43.6319 14.1959 44.0084C14.1959 44.3849 14.0463 44.746 13.7801 45.0122C13.5138 45.2785 13.1527 45.428 12.7762 45.428H10.4102V47.7941C10.4102 48.1706 10.2606 48.5317 9.99435 48.7979C9.72812 49.0642 9.36703 49.2137 8.99051 49.2137C8.614 49.2137 8.25291 49.0642 7.98668 48.7979C7.72044 48.5317 7.57087 48.1706 7.57087 47.7941V45.428H5.2048C4.82829 45.428 4.46719 45.2785 4.20096 45.0122C3.93473 44.746 3.78516 44.3849 3.78516 44.0084ZM26.4994 30.7584C26.4994 30.3819 26.649 30.0208 26.9153 29.7545C27.1815 29.4883 27.5426 29.3387 27.9191 29.3387H41.1691C41.5456 29.3387 41.9067 29.4883 42.1729 29.7545C42.4392 30.0208 42.5887 30.3819 42.5887 30.7584C42.5887 31.1349 42.4392 31.496 42.1729 31.7622C41.9067 32.0285 41.5456 32.178 41.1691 32.178H27.9191C27.5426 32.178 27.1815 32.0285 26.9153 31.7622C26.649 31.496 26.4994 31.1349 26.4994 30.7584ZM27.9191 35.9637C27.5426 35.9637 27.1815 36.1133 26.9153 36.3795C26.649 36.6458 26.4994 37.0069 26.4994 37.3834C26.4994 37.7599 26.649 38.121 26.9153 38.3872C27.1815 38.6535 27.5426 38.803 27.9191 38.803H36.437C36.8135 38.803 37.1746 38.6535 37.4408 38.3872C37.707 38.121 37.8566 37.7599 37.8566 37.3834C37.8566 37.0069 37.707 36.6458 37.4408 36.3795C37.1746 36.1133 36.8135 35.9637 36.437 35.9637H27.9191Z" fill="#E0115F"/>
</svg>
